General

Format                         : MPEG-4
Format profile                 : Base Media
Codec ID                       : isom
File size                      : 102 MiB
Duration                       : 5mn 27s
Overall bit rate mode          : Variable
Overall bit rate               : 2 624 Kbps
Encoded date                   : UTC 2012-11-04 03:00:16
Tagged date                    : UTC 2012-11-04 03:00:16

Video
ID                             : 1
Format                         : AVC
Format/Info                    : Advanced Video Codec
Format profile                 : High@L3.0
Format settings, CABAC         : Yes
Format settings, ReFrames      : 2 frames
Codec ID                       : avc1
Codec ID/Info                  : Advanced Video Coding
Duration                       : 5mn 27s
Bit rate                       : 2 427 Kbps
Maximum bit rate               : 18.9 Mbps
Width                          : 720 pixels
Height                         : 480 pixels
Display aspect ratio           : 16:9
Original display aspect ratio  : 16:9
Frame rate mode                : Constant
Frame rate                     : 25.000 fps
Standard                       : NTSC
Color space                    : YUV
Chroma subsampling             : 4:2:0
Bit depth                      : 8 bits
Scan type                      : Progressive
Bits/(Pixel*Frame)             : 0.281
Stream size                    : 94.7 MiB (93%)


Audio
ID                             : 2
Format                         : AAC
Format/Info                    : Advanced Audio Codec
Format profile                 : LC
Codec ID                       : 40
Duration                       : 5mn 27s
Bit rate mode                  : Variable
Bit rate                       : 192 Kbps
Maximum bit rate               : 217 Kbps
Channel(s)                     : 2 channels
Channel positions              : Front: L R
Sampling rate                  : 44.1 KHz
Compression mode               : Lossy
Stream size                    : 7.51 MiB (7%)